ffmpeg started on 2016-12-05 at 22:32:12
Report written to "Output/x264/results/ffmpeg/sintelfaster14000k.log"
Command line:
Tools/ffmpeg/ffmpeg -benchmark -y -i Input/y4m/sintel.y4m -c:v libx264 -preset faster -b:v 14000k -an Output/x264/encoded/sintelfaster14000k.mkv
ffmpeg version N-82227-gdb23fde Copyright (c) 2000-2016 the FFmpeg developers
  built with gcc 5.4.0 (Ubuntu 5.4.0-6ubuntu1~16.04.2) 20160609
  configuration: --prefix=/home/jaroslav/ffmpeg_build --pkg-config-flags=--static --extra-cflags=-I/home/jaroslav/ffmpeg_build/include --extra-ldflags=-L/home/jaroslav/ffmpeg_build/lib --bindir=/home/jaroslav/bin --enable-gpl --enable-libass --enable-libfdk-aac --enable-libfreetype --enable-libmp3lame --enable-libopus --enable-libtheora --enable-libvorbis --enable-libvpx --enable-libx264 --enable-libx265 --enable-nvenc --enable-libmfx --enable-libxvid --enable-libgsm --enable-libopencore-amrnb --enable-version3 --enable-nonfree
  libavutil      55. 35.100 / 55. 35.100
  libavcodec     57. 66.101 / 57. 66.101
  libavformat    57. 57.100 / 57. 57.100
  libavdevice    57.  2.100 / 57.  2.100
  libavfilter     6. 66.100 /  6. 66.100
  libswscale      4.  3.100 /  4.  3.100
  libswresample   2.  4.100 /  2.  4.100
  libpostproc    54.  2.100 / 54.  2.100
Input #0, yuv4mpegpipe, from 'Input/y4m/sintel.y4m':
  Duration: 00:00:20.83, start: 0.000000, bitrate: 2057307 kb/s
    Stream #0:0: Video: rawvideo (I420 / 0x30323449), yuv420p(progressive), 4096x1744, SAR 1:1 DAR 256:109, 24 fps, 24 tbr, 24 tbn, 24 tbc
[libx264 @ 0x33481c0] using SAR=1/1
[libx264 @ 0x33481c0] using cpu capabilities: MMX2 SSE2Fast SSSE3 SSE4.2 AVX FMA3 AVX2 LZCNT BMI2
[libx264 @ 0x33481c0] profile High, level 5.1
[libx264 @ 0x33481c0] 264 - core 148 - H.264/MPEG-4 AVC codec - Copyleft 2003-2016 - http://www.videolan.org/x264.html - options: cabac=1 ref=2 deblock=1:0:0 analyse=0x3:0x113 me=hex subme=4 psy=1 psy_rd=1.00:0.00 mixed_ref=0 me_range=16 chroma_me=1 trellis=1 8x8dct=1 cqm=0 deadzone=21,11 fast_pskip=1 chroma_qp_offset=0 threads=6 lookahead_threads=1 sliced_threads=0 nr=0 decimate=1 interlaced=0 bluray_compat=0 constrained_intra=0 bframes=3 b_pyramid=2 b_adapt=1 b_bias=0 direct=1 weightb=1 open_gop=0 weightp=1 keyint=250 keyint_min=24 scenecut=40 intra_refresh=0 rc_lookahead=20 rc=abr mbtree=1 bitrate=14000 ratetol=1.0 qcomp=0.60 qpmin=0 qpmax=69 qpstep=4 ip_ratio=1.40 aq=1:1.00
Output #0, matroska, to 'Output/x264/encoded/sintelfaster14000k.mkv':
  Metadata:
    encoder         : Lavf57.57.100
    Stream #0:0: Video: h264 (libx264) (H264 / 0x34363248), yuv420p, 4096x1744 [SAR 1:1 DAR 256:109], q=-1--1, 14000 kb/s, 24 fps, 1k tbn, 24 tbc
    Metadata:
      encoder         : Lavc57.66.101 libx264
    Side data:
      cpb: bitrate max/min/avg: 0/0/14000000 buffer size: 0 vbv_delay: -1
Stream mapping:
  Stream #0:0 -> #0:0 (rawvideo (native) -> h264 (libx264))
Press [q] to stop, [?] for help
frame=   10 fps=0.0 q=0.0 size=       0kB time=00:00:00.00 bitrate=N/A speed=   0x    frame=   14 fps= 14 q=0.0 size=       0kB time=00:00:00.00 bitrate=N/A speed=   0x    frame=   23 fps= 15 q=0.0 size=       0kB time=00:00:00.00 bitrate=N/A speed=   0x    frame=   27 fps=9.6 q=0.0 size=       0kB time=00:00:00.00 bitrate=N/A speed=   0x    frame=   32 fps=9.6 q=22.0 size=       1kB time=-00:00:00.04 bitrate=N/A speed=N/A    frame=   35 fps=9.0 q=26.0 size=       1kB time=00:00:00.08 bitrate=  69.8kbits/s speed=0.0215x    frame=   38 fps=8.5 q=40.0 size=       1kB time=00:00:00.20 bitrate=  28.1kbits/s speed=0.0466x    frame=   42 fps=5.0 q=39.0 size=       1kB time=00:00:00.37 bitrate=  15.6kbits/s speed=0.0446x    frame=   43 fps=3.5 q=39.0 size=       1kB time=00:00:00.41 bitrate=  14.0kbits/s speed=0.0338x    frame=   49 fps=3.8 q=39.0 size=       1kB time=00:00:00.66 bitrate=   8.8kbits/s speed=0.0515x    frame=   56 fps=4.1 q=38.0 size=       1kB time=00:00:00.95 bitrate=   6.1kbits/s speed=0.0702x    frame=   65 fps=4.6 q=37.0 size=       1kB time=00:00:01.33 bitrate=   4.4kbits/s speed=0.0937x    frame=   73 fps=4.9 q=37.0 size=       1kB time=00:00:01.66 bitrate=   3.5kbits/s speed=0.113x    frame=   80 fps=5.2 q=36.0 size=       1kB time=00:00:01.95 bitrate=   3.0kbits/s speed=0.128x    frame=   86 fps=5.4 q=36.0 size=    5162kB time=00:00:02.20 bitrate=19144.1kbits/s speed=0.139x    frame=   93 fps=5.7 q=36.0 size=    5162kB time=00:00:02.50 bitrate=16909.0kbits/s speed=0.153x    frame=  100 fps=5.9 q=35.0 size=    5162kB time=00:00:02.79 bitrate=15141.2kbits/s speed=0.165x    frame=  106 fps=6.1 q=35.0 size=    5162kB time=00:00:03.04 bitrate=13897.3kbits/s speed=0.174x    frame=  113 fps=6.3 q=34.0 size=    5162kB time=00:00:03.33 bitrate=12684.3kbits/s speed=0.186x    frame=  120 fps=6.5 q=34.0 size=    5162kB time=00:00:03.62 bitrate=11662.8kbits/s speed=0.196x    frame=  126 fps=6.6 q=34.0 size=    5162kB time=00:00:03.87 bitrate=10910.6kbits/s speed=0.203x    frame=  133 fps=6.8 q=34.0 size=    7368kB time=00:00:04.16 bitrate=14481.5kbits/s speed=0.212x    frame=  139 fps=6.9 q=33.0 size=    7368kB time=00:00:04.41 bitrate=13662.0kbits/s speed=0.218x    frame=  148 fps=7.1 q=33.0 size=    7368kB time=00:00:04.79 bitrate=12593.1kbits/s speed=0.231x    frame=  153 fps=7.1 q=33.0 size=    7368kB time=00:00:05.00 bitrate=12069.3kbits/s speed=0.233x    frame=  161 fps=7.3 q=33.0 size=    7368kB time=00:00:05.33 bitrate=11315.9kbits/s speed=0.243x    frame=  169 fps=7.5 q=33.0 size=    7368kB time=00:00:05.66 bitrate=10649.0kbits/s speed=0.251x    frame=  177 fps=7.7 q=33.0 size=    7368kB time=00:00:06.00 bitrate=10058.1kbits/s speed=0.26x    frame=  183 fps=7.7 q=33.0 size=    7368kB time=00:00:06.25 bitrate=9655.9kbits/s speed=0.264x    frame=  191 fps=7.9 q=32.0 size=   11006kB time=00:00:06.58 bitrate=13694.2kbits/s speed=0.272x    frame=  199 fps=8.0 q=32.0 size=   11006kB time=00:00:06.91 bitrate=13033.1kbits/s speed=0.279x    frame=  207 fps=8.1 q=32.0 size=   11006kB time=00:00:07.25 bitrate=12434.5kbits/s speed=0.284x    frame=  217 fps=8.3 q=32.0 size=   12550kB time=00:00:07.66 bitrate=13407.5kbits/s speed=0.293x    frame=  222 fps=8.3 q=32.0 size=   12550kB time=00:00:07.87 bitrate=13053.4kbits/s speed=0.296x    frame=  230 fps=8.5 q=31.0 size=   12550kB time=00:00:08.20 bitrate=12523.9kbits/s speed=0.302x    frame=  238 fps=8.6 q=31.0 size=   12550kB time=00:00:08.54 bitrate=12034.3kbits/s speed=0.308x    frame=  244 fps=8.6 q=31.0 size=   12550kB time=00:00:08.79 bitrate=11692.1kbits/s speed=0.31x    frame=  250 fps=8.7 q=31.0 size=   12550kB time=00:00:09.04 bitrate=11368.9kbits/s speed=0.313x    frame=  257 fps=8.7 q=31.0 size=   12550kB time=00:00:09.33 bitrate=11014.4kbits/s speed=0.317x    frame=  262 fps=8.8 q=31.0 size=   12550kB time=00:00:09.54 bitrate=10773.2kbits/s speed=0.319x    frame=  270 fps=8.9 q=31.0 size=   12550kB time=00:00:09.87 bitrate=10410.0kbits/s speed=0.324x    frame=  278 fps=9.0 q=31.0 size=   12550kB time=00:00:10.20 bitrate=10070.4kbits/s speed=0.33x    frame=  284 fps=9.0 q=31.0 size=   12550kB time=00:00:10.45 bitrate=9829.7kbits/s speed=0.332x    frame=  291 fps=9.1 q=28.0 size=   12550kB time=00:00:10.75 bitrate=9562.7kbits/s speed=0.335x    frame=  301 fps=9.2 q=30.0 size=   17392kB time=00:00:11.16 bitrate=12757.6kbits/s speed=0.341x    frame=  308 fps=9.3 q=30.0 size=   17392kB time=00:00:11.45 bitrate=12433.7kbits/s speed=0.344x    frame=  315 fps=9.3 q=30.0 size=   17392kB time=00:00:11.75 bitrate=12124.7kbits/s speed=0.347x    frame=  323 fps=9.4 q=30.0 size=   17392kB time=00:00:12.08 bitrate=11790.6kbits/s speed=0.351x    frame=  332 fps=9.5 q=29.0 size=   17392kB time=00:00:12.45 bitrate=11435.7kbits/s speed=0.356x    frame=  342 fps=9.6 q=29.0 size=   17392kB time=00:00:12.87 bitrate=11065.3kbits/s speed=0.362x    frame=  351 fps=9.7 q=29.0 size=   17392kB time=00:00:13.25 bitrate=10752.2kbits/s speed=0.367x    frame=  360 fps=9.8 q=28.0 size=   17392kB time=00:00:13.62 bitrate=10456.3kbits/s speed=0.372x    frame=  369 fps=9.9 q=28.0 size=   17392kB time=00:00:14.00 bitrate=10176.2kbits/s speed=0.377x    frame=  377 fps= 10 q=28.0 size=   17392kB time=00:00:14.33 bitrate=9939.8kbits/s speed=0.381x    frame=  386 fps= 10 q=28.0 size=   17392kB time=00:00:14.70 bitrate=9686.4kbits/s speed=0.386x    frame=  395 fps= 10 q=27.0 size=   21792kB time=00:00:15.08 bitrate=11835.0kbits/s speed=0.389x    frame=  401 fps= 10 q=27.0 size=   21792kB time=00:00:15.33 bitrate=11642.1kbits/s speed=0.39x    frame=  407 fps= 10 q=27.0 size=   21792kB time=00:00:15.58 bitrate=11455.3kbits/s speed=0.391x    frame=  412 fps= 10 q=27.0 size=   21792kB time=00:00:15.79 bitrate=11303.7kbits/s speed=0.391x    frame=  419 fps= 10 q=27.0 size=   21792kB time=00:00:16.08 bitrate=11099.2kbits/s speed=0.392x    frame=  425 fps= 10 q=27.0 size=   21792kB time=00:00:16.33 bitrate=10929.3kbits/s speed=0.393x    frame=  432 fps= 10 q=27.0 size=   21792kB time=00:00:16.62 bitrate=10737.4kbits/s speed=0.393x    frame=  439 fps= 10 q=27.0 size=   21792kB time=00:00:16.91 bitrate=10552.0kbits/s speed=0.395x    frame=  446 fps= 10 q=27.0 size=   21792kB time=00:00:17.20 bitrate=10373.6kbits/s speed=0.397x    frame=  453 fps= 10 q=27.0 size=   25909kB time=00:00:17.50 bitrate=12127.8kbits/s speed=0.399x    frame=  460 fps= 10 q=27.0 size=   25909kB time=00:00:17.79 bitrate=11928.8kbits/s speed=0.401x    frame=  467 fps= 10 q=27.0 size=   25909kB time=00:00:18.08 bitrate=11736.8kbits/s speed=0.403x    frame=  475 fps= 10 q=27.0 size=   25909kB time=00:00:18.41 bitrate=11524.0kbits/s speed=0.405x    frame=  483 fps= 10 q=27.0 size=   25909kB time=00:00:18.75 bitrate=11319.3kbits/s speed=0.407x    frame=  490 fps= 10 q=27.0 size=   25909kB time=00:00:19.04 bitrate=11145.8kbits/s speed=0.408x    frame=  495 fps= 10 q=27.0 size=   25909kB time=00:00:19.25 bitrate=11025.3kbits/s speed=0.408x    frame=  500 fps= 10 q=-1.0 Lsize=   31884kB time=00:00:20.70 bitrate=12612.5kbits/s speed=0.422x    
video:31879kB audio:0kB subtitle:0kB other streams:0kB global headers:0kB muxing overhead: 0.015519%
bench: utime=146.912s
bench: maxrss=1123040kB
[libx264 @ 0x33481c0] frame I:8     Avg QP:21.69  size:205185
[libx264 @ 0x33481c0] frame P:269   Avg QP:27.06  size: 75530
[libx264 @ 0x33481c0] frame B:223   Avg QP:24.96  size: 47912
[libx264 @ 0x33481c0] consecutive B-frames: 37.0%  8.4%  6.6% 48.0%
[libx264 @ 0x33481c0] mb I  I16..4: 31.1% 53.9% 15.0%
[libx264 @ 0x33481c0] mb P  I16..4: 25.3% 35.5%  1.1%  P16..4: 14.2%  4.1%  0.7%  0.0%  0.0%    skip:19.0%
[libx264 @ 0x33481c0] mb B  I16..4:  5.7%  7.1%  0.9%  B16..8: 21.9%  3.7%  0.2%  direct:11.3%  skip:49.2%  L0:42.9% L1:50.1% BI: 7.0%
[libx264 @ 0x33481c0] final ratefactor: 24.29
[libx264 @ 0x33481c0] 8x8 transform intra:56.4% inter:68.2%
[libx264 @ 0x33481c0] coded y,uvDC,uvAC intra: 27.9% 26.6% 2.4% inter: 9.2% 9.3% 0.1%
[libx264 @ 0x33481c0] i16 v,h,dc,p: 44% 25% 14% 18%
[libx264 @ 0x33481c0] i8 v,h,dc,ddl,ddr,vr,hd,vl,hu: 20% 27% 27%  5%  4%  4%  5%  4%  5%
[libx264 @ 0x33481c0] i4 v,h,dc,ddl,ddr,vr,hd,vl,hu: 16% 23% 10%  9%  9%  8% 10%  6% 10%
[libx264 @ 0x33481c0] i8c dc,h,v,p: 65% 17% 16%  2%
[libx264 @ 0x33481c0] Weighted P-Frames: Y:0.7% UV:0.0%
[libx264 @ 0x33481c0] ref P L0: 84.2% 15.8%
[libx264 @ 0x33481c0] ref B L0: 88.9% 11.1%
[libx264 @ 0x33481c0] ref B L1: 96.6%  3.4%
[libx264 @ 0x33481c0] kb/s:12535.04
